<svg width="540" height="540" viewBox="0 0 540 540" fill="none" xmlns="http://www.w3.org/2000/svg">
<g clip-path="url(#clip0_7_2)">
<path d="M11.7842 317.075L38.0102 374H44.3736L17.8964 317.075H11.7842Z" fill="#F9B521"/>
<path d="M377.007 167.005L310.766 224.641L420.11 224.637L314.681 316.359H236.949L264.492 374H341.963V373.863L342.123 374L466.959 265.399V360.534L533.199 302.904L533.217 167L377.007 167.005Z" fill="#F9B521"/>
<path d="M101.096 374H136.218L109.127 317.075H74.002L101.096 374Z" fill="#F9B521"/>
<path d="M55.5783 317.075H38.4453L65.7548 374H82.8854L55.5783 317.075Z" fill="#F9B521"/>
<path d="M157.342 374H186.582L159.526 317.075H130.291L157.342 374Z" fill="#F9B521"/>
<path d="M214.037 374H248.798L221.338 317.075H186.582L214.037 374Z" fill="#F9B521"/>
</g>
<defs>
<clipPath id="clip0_7_2">
<rect width="540" height="540" fill="white"/>
</clipPath>
</defs>
</svg>
