<svg width="540" height="540" viewBox="0 0 540 540" fill="none" xmlns="http://www.w3.org/2000/svg">
<g clip-path="url(#clip0_14_2)">
<path d="M182.625 259.433C182.625 262.102 181.567 264.662 179.684 266.55C177.801 268.437 175.247 269.498 172.583 269.498C169.92 269.498 167.366 268.437 165.483 266.55C163.6 264.662 162.542 262.102 162.542 259.433C162.542 256.763 163.6 254.203 165.483 252.315C167.366 250.428 169.92 249.367 172.583 249.367C175.247 249.367 177.801 250.428 179.684 252.315C181.567 254.203 182.625 256.763 182.625 259.433ZM182.625 259.433H172.583M283.042 259.433C283.042 262.102 281.984 264.662 280.101 266.55C278.217 268.437 275.663 269.498 273 269.498C270.337 269.498 267.783 268.437 265.899 266.55C264.016 264.662 262.958 262.102 262.958 259.433C262.958 256.763 264.016 254.203 265.899 252.315C267.783 250.428 270.337 249.367 273 249.367C275.663 249.367 278.217 250.428 280.101 252.315C281.984 254.203 283.042 256.763 283.042 259.433ZM283.042 259.433H273M383.458 259.433C383.458 262.102 382.4 264.662 380.517 266.55C378.634 268.437 376.08 269.498 373.417 269.498C370.753 269.498 368.199 268.437 366.316 266.55C364.433 264.662 363.375 262.102 363.375 259.433C363.375 256.763 364.433 254.203 366.316 252.315C368.199 250.428 370.753 249.367 373.417 249.367C376.08 249.367 378.634 250.428 380.517 252.315C382.4 254.203 383.458 256.763 383.458 259.433ZM383.458 259.433H373.417M514 259.433C514 381.717 406.086 480.865 273 480.865C249.896 480.893 226.89 477.852 204.583 471.82C173.139 493.986 134.782 504.058 96.5344 500.19C92.282 499.779 88.0477 499.197 83.8418 498.446C97.0396 482.855 106.053 464.148 110.03 444.094C112.44 431.828 106.469 419.911 97.5252 411.188C56.9033 371.571 32 318.186 32 259.433C32 137.148 139.914 38 273 38C406.086 38 514 137.148 514 259.433Z" stroke="black" stroke-width="23" stroke-linecap="round" stroke-linejoin="round"/>
</g>
<defs>
<clipPath id="clip0_14_2">
<rect width="540" height="540" fill="white"/>
</clipPath>
</defs>
</svg>
