<svg width="540" height="540" viewBox="0 0 540 540" fill="none" xmlns="http://www.w3.org/2000/svg">
<g clip-path="url(#clip0_3_6)">
<rect width="540" height="540" fill="white"/>
<path d="M273 187V353M356 270H190M522 270C522 302.699 515.559 335.078 503.046 365.288C490.533 395.498 472.191 422.948 449.07 446.07C425.948 469.191 398.498 487.533 368.288 500.046C338.078 512.559 305.699 519 273 519C240.301 519 207.922 512.559 177.712 500.046C147.502 487.533 120.052 469.191 96.9304 446.07C73.8086 422.948 55.4674 395.498 42.954 365.288C30.4406 335.078 24 302.699 24 270C24 203.961 50.2338 140.627 96.9304 93.9304C143.627 47.2339 206.961 21 273 21C339.039 21 402.373 47.2339 449.07 93.9304C495.766 140.627 522 203.961 522 270Z" stroke="black" stroke-width="23" stroke-linecap="round" stroke-linejoin="round"/>
</g>
<defs>
<clipPath id="clip0_3_6">
<rect width="540" height="540" fill="white"/>
</clipPath>
</defs>
</svg>
